<svg width="100%" viewBox="0 0 680 420" xmlns="http://www.w3.org/2000/svg" style="display:block;background:#0a0a0a;border-radius:12px;border:1px solid rgba(0,217,126,0.2)">
<defs>
  <style>
    @keyframes scan { 0%{transform:translateY(0)} 100%{transform:translateY(180px)} }
    @keyframes blink { 0%,100%{opacity:1} 50%{opacity:0} }
    @keyframes pulse { 0%,100%{opacity:0.3} 50%{opacity:1} }
    @keyframes fly { 0%{opacity:0;transform:translateX(0)} 20%{opacity:1} 80%{opacity:1} 100%{opacity:0;transform:translateX(-60px)} }
    @keyframes alert { 0%,100%{opacity:0;transform:translateY(4px)} 15%,85%{opacity:1;transform:translateY(0)} }
    @keyframes glow { 0%,100%{opacity:0.15} 50%{opacity:0.35} }
    .scan-line { animation: scan 2.8s linear infinite; }
    .cur { animation: blink 1s step-end infinite; }
    .dot-pulse { animation: pulse 1.8s ease-in-out infinite; }
    .code1 { animation: fly 3.2s ease-in-out infinite; }
    .code2 { animation: fly 3.2s ease-in-out 0.6s infinite; }
    .code3 { animation: fly 3.2s ease-in-out 1.3s infinite; }
    .alert1 { animation: alert 4s ease-in-out infinite; }
    .alert2 { animation: alert 4s ease-in-out 1.4s infinite; }
    .alert3 { animation: alert 4s ease-in-out 2.8s infinite; }
    .glow-r { animation: glow 2.5s ease-in-out infinite; }
  </style>
</defs>

<ellipse cx="260" cy="280" rx="200" ry="120" fill="#00d97e" opacity="0.04" class="glow-r"/>
<ellipse cx="500" cy="200" rx="160" ry="100" fill="#00d97e" opacity="0.06" class="glow-r"/>

<rect x="60" y="330" width="420" height="8" rx="2" fill="#1a1a1a"/>
<rect x="40" y="338" width="460" height="4" rx="2" fill="#141414"/>

<rect x="110" y="310" width="320" height="22" rx="6" fill="#1c1c1e"/>
<rect x="120" y="312" width="300" height="18" rx="4" fill="#222224"/>
<rect x="215" y="315" width="110" height="11" rx="3" fill="#2a2a2c"/>
<rect x="268" y="316" width="1" height="9" fill="#333"/>

<rect x="118" y="306" width="304" height="6" rx="3" fill="#1a1a1a"/>

<rect x="108" y="100" width="324" height="210" rx="8" fill="#111113"/>
<rect x="116" y="108" width="308" height="194" rx="6" fill="#0d0d10"/>
<rect x="116" y="108" width="308" height="2" rx="1" fill="#00d97e" opacity="0.4"/>
<rect x="122" y="114" width="296" height="182" rx="4" fill="#070709"/>

<g class="scan-line" style="clip-path:inset(0 0 0 0)">
  <rect x="122" y="114" width="296" height="2" fill="#00d97e" opacity="0.25" rx="1"/>
</g>

<text x="130" y="134" font-family="monospace" font-size="9" fill="#00d97e" opacity="0.9">$ run vuln-scan --target 192.168.1.0/24</text>
<text x="130" y="148" font-family="monospace" font-size="9" fill="#555">&gt; Initialising scan engine...</text>
<text x="130" y="162" font-family="monospace" font-size="9" fill="#555">&gt; Loading CVE database... done</text>
<text x="130" y="176" font-family="monospace" font-size="9" fill="#f59e0b" opacity="0.9">&gt; Port 22 open — SSH detected</text>
<text x="130" y="190" font-family="monospace" font-size="9" fill="#f59e0b" opacity="0.9">&gt; Port 80 open — HTTP (unencrypted)</text>
<text x="130" y="204" font-family="monospace" font-size="9" fill="#ef4444" opacity="0.9">&gt; CVE-2024-1337 — CRITICAL found</text>
<text x="130" y="218" font-family="monospace" font-size="9" fill="#ef4444" opacity="0.9">&gt; Weak credentials on /admin</text>
<text x="130" y="232" font-family="monospace" font-size="9" fill="#00d97e">&gt; Generating report...</text>
<text x="130" y="248" font-family="monospace" font-size="9" fill="#00d97e">$ <tspan class="cur" fill="#00d97e">&#9608;</tspan></text>

<rect x="130" y="258" width="270" height="4" rx="2" fill="#1a1a1a"/>
<rect x="130" y="258" width="196" height="4" rx="2" fill="#00d97e" opacity="0.8"/>
<text x="130" y="278" font-family="monospace" font-size="8" fill="#444">73% complete — 12 hosts scanned</text>

<g class="code1" style="transform-origin:80px 180px">
  <text x="52" y="160" font-family="monospace" font-size="8" fill="#00d97e" opacity="0.7">0xDEAD</text>
</g>
<g class="code2" style="transform-origin:75px 200px">
  <text x="47" y="200" font-family="monospace" font-size="8" fill="#00d97e" opacity="0.5">FF:A0:3C</text>
</g>
<g class="code3" style="transform-origin:80px 240px">
  <text x="52" y="238" font-family="monospace" font-size="8" fill="#00d97e" opacity="0.6">root@</text>
</g>

<g class="alert1">
  <rect x="452" y="120" width="190" height="44" rx="6" fill="#1a0a0a" stroke="#ef4444" stroke-width="1" opacity="0.95"/>
  <rect x="452" y="120" width="4" height="44" rx="2" fill="#ef4444"/>
  <text x="464" y="137" font-family="monospace" font-size="9" fill="#ef4444">CRITICAL</text>
  <text x="464" y="152" font-family="monospace" font-size="8" fill="#888">CVE-2024-1337 detected</text>
</g>

<g class="alert2">
  <rect x="452" y="178" width="190" height="44" rx="6" fill="#1a1200" stroke="#f59e0b" stroke-width="1" opacity="0.95"/>
  <rect x="452" y="178" width="4" height="44" rx="2" fill="#f59e0b"/>
  <text x="464" y="195" font-family="monospace" font-size="9" fill="#f59e0b">WARNING</text>
  <text x="464" y="210" font-family="monospace" font-size="8" fill="#888">Open port 80 — no TLS</text>
</g>

<g class="alert3">
  <rect x="452" y="236" width="190" height="44" rx="6" fill="#001a0a" stroke="#00d97e" stroke-width="1" opacity="0.95"/>
  <rect x="452" y="236" width="4" height="44" rx="2" fill="#00d97e"/>
  <text x="464" y="253" font-family="monospace" font-size="9" fill="#00d97e">INFO</text>
  <text x="464" y="268" font-family="monospace" font-size="8" fill="#888">Firewall rules: 14 active</text>
</g>

<line x1="432" y1="200" x2="450" y2="200" stroke="#00d97e" stroke-width="0.5" stroke-dasharray="3,3" opacity="0.3"/>

<ellipse cx="260" cy="68" rx="26" ry="28" fill="#1e1e22"/>
<path d="M234 68 Q234 30 260 28 Q286 30 286 68 Q280 58 260 56 Q240 58 234 68Z" fill="#141416"/>
<ellipse cx="260" cy="72" rx="18" ry="20" fill="#0a120f" opacity="0.8"/>
<ellipse cx="252" cy="68" rx="4" ry="3" fill="#0d1a12"/>
<ellipse cx="268" cy="68" rx="4" ry="3" fill="#0d1a12"/>
<ellipse cx="252" cy="68" rx="2" ry="1.5" fill="#00d97e" opacity="0.6" class="dot-pulse"/>
<ellipse cx="268" cy="68" rx="2" ry="1.5" fill="#00d97e" opacity="0.6" class="dot-pulse"/>

<path d="M220 96 Q220 88 234 84 Q248 80 260 80 Q272 80 286 84 Q300 88 300 96 L305 310 L215 310 Z" fill="#141416"/>
<path d="M215 120 Q180 140 160 200 Q155 220 170 225 Q185 230 195 200 L220 140Z" fill="#1a1a1e"/>
<path d="M305 120 Q340 140 360 200 Q365 220 350 225 Q335 230 325 200 L300 140Z" fill="#1a1a1e"/>
<ellipse cx="170" cy="320" rx="22" ry="10" fill="#1e1e22"/>
<ellipse cx="370" cy="320" rx="22" ry="10" fill="#1e1e22"/>

<rect x="60" y="362" width="560" height="28" rx="6" fill="#0d0d10" stroke="rgba(0,217,126,0.15)" stroke-width="1"/>
<text x="76" y="381" font-family="monospace" font-size="9" fill="#00d97e">&#9679; SCAN ACTIVE</text>
<text x="200" y="381" font-family="monospace" font-size="9" fill="#444">|</text>
<text x="216" y="381" font-family="monospace" font-size="9" fill="#555">Hosts: 24</text>
<text x="296" y="381" font-family="monospace" font-size="9" fill="#444">|</text>
<text x="312" y="381" font-family="monospace" font-size="9" fill="#555">Vulns: 7</text>
<text x="384" y="381" font-family="monospace" font-size="9" fill="#444">|</text>
<text x="400" y="381" font-family="monospace" font-size="9" fill="#555">Critical: 2</text>
<text x="488" y="381" font-family="monospace" font-size="9" fill="#444">|</text>
<text x="504" y="381" font-family="monospace" font-size="9" fill="#ef4444" class="dot-pulse">HIGH RISK</text>
</svg>