<svg xmlns="http://www.w3.org/2000/svg" viewBox="0 0 64 64" fill="none">
  <defs>
    <linearGradient id="g" x1="10" y1="6" x2="54" y2="58">
      <stop stop-color="#38bdf8"/>
      <stop offset="1" stop-color="#6366f1"/>
    </linearGradient>
  </defs>
  <path d="M32 6c10 6 18 6 18 6v18c0 14-9 24-18 28C23 54 14 44 14 30V12s8 0 18-6z" fill="url(#g)" opacity=".95"/>
  <path d="M32 18c5 3 10 3 10 3v10c0 8-5 13-10 15-5-2-10-7-10-15V21s5 0 10-3z" fill="#06111f" opacity=".55"/>
  <path d="M29 33l-3-3 2-2 1 1 7-7 2 2-9 9z" fill="#e5e7eb"/>
</svg>
